<svg width="480" height="96" xmlns="http://www.w3.org/2000/svg">
  <defs>
    <marker id="arr" markerWidth="8" markerHeight="6" refX="7" refY="3" orient="auto">
      <polygon points="0 0, 8 3, 0 6" fill="#2563eb"/>
    </marker>
  </defs>

  <!-- Node 1 -->
  <rect x="10" y="24" width="70" height="38" rx="4" fill="#dbeafe" stroke="#2563eb" stroke-width="1.5"/>
  <rect x="80" y="24" width="46" height="38" rx="4" fill="#93c5fd" stroke="#2563eb" stroke-width="1.5"/>
  <line x1="80" y1="24" x2="80" y2="62" stroke="#2563eb" stroke-width="1.5"/>
  <text x="45" y="48" text-anchor="middle" font-family="monospace" font-size="15" fill="#1e3a8a">42</text>
  <text x="103" y="48" text-anchor="middle" font-family="monospace" font-size="12" fill="#1e3a8a">next</text>

  <!-- Arrow 1 -->
  <line x1="126" y1="43" x2="162" y2="43" stroke="#2563eb" stroke-width="1.5" marker-end="url(#arr)"/>

  <!-- Node 2 -->
  <rect x="162" y="24" width="70" height="38" rx="4" fill="#dbeafe" stroke="#2563eb" stroke-width="1.5"/>
  <rect x="232" y="24" width="46" height="38" rx="4" fill="#93c5fd" stroke="#2563eb" stroke-width="1.5"/>
  <line x1="232" y1="24" x2="232" y2="62" stroke="#2563eb" stroke-width="1.5"/>
  <text x="197" y="48" text-anchor="middle" font-family="monospace" font-size="15" fill="#1e3a8a">17</text>
  <text x="255" y="48" text-anchor="middle" font-family="monospace" font-size="12" fill="#1e3a8a">next</text>

  <!-- Arrow 2 -->
  <line x1="278" y1="43" x2="314" y2="43" stroke="#2563eb" stroke-width="1.5" marker-end="url(#arr)"/>

  <!-- Node 3 -->
  <rect x="314" y="24" width="70" height="38" rx="4" fill="#dbeafe" stroke="#2563eb" stroke-width="1.5"/>
  <rect x="384" y="24" width="52" height="38" rx="4" fill="#bfdbfe" stroke="#2563eb" stroke-width="1.5"/>
  <line x1="384" y1="24" x2="384" y2="62" stroke="#2563eb" stroke-width="1.5"/>
  <text x="349" y="48" text-anchor="middle" font-family="monospace" font-size="15" fill="#1e3a8a">99</text>
  <text x="410" y="48" text-anchor="middle" font-family="monospace" font-size="11" fill="#6b7280">null</text>

  <!-- Field labels -->
  <text x="45" y="84" text-anchor="middle" font-family="sans-serif" font-size="10" fill="#9ca3af">data</text>
  <text x="103" y="84" text-anchor="middle" font-family="sans-serif" font-size="10" fill="#9ca3af">pointer</text>
</svg>
